<svg width="220" height="227" viewBox="0 0 220 227" fill="none" xmlns="http://www.w3.org/2000/svg">
<g clip-path="url(#clip0_209_6916)">
<path d="M74.4517 267.563C103.23 277.485 141.044 282.468 160.449 263.353L154.156 118.468H80.8231L74.4517 267.563Z" fill="white"/>
<path d="M129.823 193.854C129.935 193.977 124.863 198.725 118.503 204.459C112.142 210.192 106.913 214.761 106.801 214.638C106.689 214.515 111.762 209.767 118.122 204.033C124.482 198.3 129.711 193.731 129.823 193.854Z" fill="#263238"/>
<path opacity="0.3" d="M102.558 274.729C102.558 274.729 104.417 153.058 101.964 147.067C99.512 141.076 90.7666 272.903 91.5616 272.903L102.558 274.729Z" fill="black"/>
<path d="M72.1784 149.196L68.5056 210.552L65.8181 272.143C73.7796 278.224 84.6189 281.393 97.5522 282.423L102.602 157.897V110.17L101.706 109.565L95.5254 114.895L94.1145 115.052C93.1179 113.014 91.5615 113.776 91.5615 113.776C91.3048 113.304 90.8752 112.951 90.3633 112.79C89.9116 112.739 89.4543 112.803 89.0336 112.975C88.6129 113.147 88.2422 113.423 87.9558 113.776L86.8361 112.566C84.9884 112.04 83.9471 114.313 83.9471 114.313C67.7889 116.105 65.5942 125.601 63.0747 131.626L72.1784 149.196Z" fill="#1753E8"/>
<path d="M76.9151 150.393C76.7359 150.908 75.3586 185.455 75.3586 185.455C75.3586 185.455 79.1434 189.408 77.7661 194.571C76.3888 199.733 73.8805 211.615 67.0612 212.13C57.4984 212.858 48.5515 207.281 48.7307 190.103C48.9098 172.924 62.9069 131.625 62.9069 131.625L79.3562 143.293L76.9151 150.393Z" fill="#1753E8"/>
<path d="M132.175 107.873C132.175 107.873 137.886 111.579 139.543 114.289H143.675C144.403 114.211 145.176 113.382 146.105 113.416C146.665 113.416 147.326 114.278 147.93 114.334C148.535 114.39 148.871 113.461 149.408 113.528C150.528 113.662 151.424 114.435 152.644 114.737C157.258 115.857 162.398 117.447 164.816 119.217C171.087 123.696 173.192 131.669 173.192 131.669C173.192 131.669 156.272 149.911 157.448 150.774C158.624 151.636 157.986 197.359 157.986 197.359C157.986 197.359 164.245 267.035 162.565 269.275C160.886 271.515 144.101 281.739 128.29 280.843C128.29 280.843 127.786 272.008 129.096 251.201C131.067 219.913 130.854 208.647 131.403 197.449C132.298 179.285 131.246 145.018 131.403 139.329C131.559 135.174 131.783 108.018 132.175 107.873Z" fill="#1753E8"/>
<g opacity="0.3">
<path d="M155.545 185.748C152.757 190.399 151.624 195.857 152.329 201.234C153.035 206.611 155.537 211.592 159.43 215.367V208.268L156.071 187.383L155.545 185.748Z" fill="black"/>
</g>
<path d="M173.192 131.603C173.192 131.603 179.105 176.206 182.15 180.316C185.196 184.426 184.211 190.249 183.416 195.904C182.542 202.097 179.452 216.8 167.739 215.781C161.569 215.255 157.907 210.787 155.802 204.124C152.152 192.567 156.922 178.927 156.922 175.792C156.922 172.656 153.204 149.252 153.641 148.031C154.078 146.81 173.192 131.603 173.192 131.603Z" fill="#1753E8"/>
<path d="M102.367 139.43C102.112 139.138 101.891 138.819 101.707 138.478C101.148 137.591 100.507 136.758 99.7919 135.992C99.29 135.474 98.7123 135.036 98.0787 134.693C97.3344 134.335 96.5287 134.122 95.7048 134.066C93.754 133.877 91.7937 134.312 90.106 135.309L89.4565 135.689L89.6805 134.973C89.9604 134.088 90.2404 133.159 90.5091 132.207C91.8304 127.481 93.0174 123.248 93.8684 119.945C94.2939 118.466 94.641 117.235 94.9882 116.238C95.0914 115.774 95.2453 115.324 95.4473 114.894C95.4164 115.368 95.3338 115.838 95.2009 116.294C95.0105 117.19 94.7082 118.466 94.3275 120.057C93.5437 123.214 92.4463 127.582 91.069 132.375C90.8002 133.327 90.5203 134.267 90.2292 135.152L89.8037 134.816C93.6556 132.576 98.3362 133.439 100.027 135.745C100.741 136.549 101.354 137.436 101.852 138.388C102.062 138.715 102.235 139.065 102.367 139.43Z" fill="#263238"/>
<g opacity="0.3">
<path d="M135.422 135.04C137.275 134.267 139.342 134.176 141.256 134.783V134.872C141.791 136.347 142.166 137.875 142.376 139.43C139.151 137.538 135.042 136.754 131.727 138.489C132.572 136.985 133.864 135.78 135.422 135.04Z" fill="black"/>
</g>
<path d="M131.425 138.715C131.573 138.379 131.773 138.069 132.018 137.796C132.627 136.984 133.343 136.257 134.146 135.635C134.708 135.179 135.329 134.802 135.993 134.515C136.777 134.189 137.62 134.029 138.468 134.045C140.459 134.057 142.378 134.793 143.865 136.117L143.384 136.363C143.205 135.098 142.97 133.765 142.734 132.399C141.839 127.46 141.021 122.992 140.394 119.599L139.722 115.713C139.621 115.241 139.561 114.762 139.543 114.28C139.73 114.726 139.865 115.192 139.946 115.668C140.159 116.575 140.45 117.908 140.808 119.521C141.491 122.779 142.421 127.292 143.317 132.298C143.552 133.664 143.776 135.008 143.955 136.296L144.056 137.069L143.485 136.542C142.1 135.298 140.318 134.588 138.457 134.538C136.972 134.505 135.522 134.992 134.359 135.915C133.299 136.759 132.317 137.696 131.425 138.715Z" fill="#263238"/>
<g opacity="0.3">
<path d="M80.6888 195.367C78.8068 195.178 76.9066 195.425 75.1356 196.089C73.3645 196.753 71.7702 197.816 70.4762 199.196C69.1822 200.576 68.2233 202.235 67.6738 204.045C67.1243 205.855 66.999 207.767 67.3077 209.633C67.498 209.533 68.573 209.118 68.573 209.118L68.2483 214.605C70.4106 214.262 72.4775 213.471 74.3169 212.283C76.1563 211.095 77.7277 209.537 78.9308 207.707C80.0816 205.892 80.8334 203.854 81.1365 201.726C81.4396 199.598 81.287 197.431 80.6888 195.367Z" fill="black"/>
</g>
<path d="M67.061 212.164C70.613 211.745 73.8582 209.947 76.0975 207.158C78.4032 204.285 79.9234 200.862 80.5094 197.225C81.2484 193.127 80.9461 188.591 78.6394 185.221C76.3327 181.85 72.895 180.383 69.1326 179.028" fill="#1753E8"/>
<path d="M69.1327 178.994C69.7198 179.112 70.2937 179.289 70.846 179.52C72.4164 180.044 73.9197 180.751 75.325 181.626C77.4274 182.971 79.0714 184.924 80.0392 187.225C81.1318 190.042 81.4676 193.096 81.0134 196.083C80.65 199.067 79.7148 201.953 78.2588 204.582C77.0591 206.733 75.3904 208.585 73.3766 210.003C72.0278 210.953 70.5063 211.63 68.8976 211.996C68.4622 212.093 68.0208 212.16 67.5763 212.197C67.4206 212.224 67.2616 212.224 67.106 212.197C67.106 212.197 67.7442 212.097 68.8416 211.794C70.3934 211.352 71.8535 210.635 73.1527 209.678C75.0722 208.252 76.6581 206.426 77.7997 204.325C79.1934 201.748 80.0934 198.934 80.4535 196.027C80.8901 193.134 80.5818 190.178 79.5577 187.438C78.626 185.238 77.0685 183.361 75.0787 182.04C73.7263 181.154 72.2898 180.404 70.79 179.8C70.2148 179.581 69.6603 179.311 69.1327 178.994Z" fill="#263238"/>
<path d="M71.7417 141.39C72.0474 142.067 72.2983 142.767 72.4919 143.484C72.9398 144.951 73.5333 146.844 74.2388 149.151V149.218C74.2388 152.577 74.306 156.553 74.3507 160.92C74.3507 166.34 74.4403 171.245 74.4739 174.952C74.4739 176.665 74.4739 178.098 74.4739 179.207C74.5077 179.73 74.489 180.256 74.4179 180.775C74.3137 180.262 74.2575 179.741 74.25 179.218C74.1828 178.21 74.1044 176.766 74.0372 174.963C73.9028 171.368 73.7909 166.407 73.7461 160.92C73.7461 156.53 73.7461 152.477 73.7461 149.218V149.285L72.1896 143.551C71.9828 142.844 71.833 142.121 71.7417 141.39Z" fill="#263238"/>
<path d="M162.151 142.734C161.861 143.295 161.524 143.831 161.143 144.335L158.232 148.579V148.445C158.232 151.973 158.109 156.654 157.862 161.771C157.571 167.37 157.314 172.354 157.112 176.139C157.034 177.897 156.955 179.353 156.911 180.495C156.907 181.031 156.862 181.567 156.776 182.096C156.686 181.568 156.653 181.031 156.675 180.495C156.675 179.465 156.675 177.964 156.675 176.128C156.743 172.443 156.978 167.359 157.258 161.738C157.504 156.631 157.694 151.961 157.773 148.445V148.333L160.841 144.212C161.221 143.672 161.66 143.176 162.151 142.734Z" fill="#263238"/>
<path d="M170.135 215.769C169.505 215.814 168.872 215.814 168.243 215.769C166.514 215.623 164.826 215.168 163.26 214.425C160.97 213.206 159.061 211.382 157.739 209.15C154.679 203.625 153.408 197.287 154.1 191.009C154.42 188.471 155.083 185.989 156.071 183.629C156.732 182.045 157.574 180.542 158.579 179.15C158.851 178.762 159.142 178.388 159.452 178.03C159.654 177.784 159.777 177.66 159.788 177.683C158.465 179.594 157.339 181.635 156.429 183.775C155.508 186.119 154.898 188.574 154.615 191.076C153.997 197.23 155.237 203.428 158.176 208.87C159.429 211.039 161.243 212.83 163.428 214.055C164.939 214.815 166.566 215.318 168.243 215.545C168.879 215.564 169.512 215.639 170.135 215.769Z" fill="#263238"/>
<g opacity="0.3">
<path d="M97.8879 134.415C96.0399 133.639 93.9766 133.543 92.0651 134.146V134.247C91.5242 135.72 91.1486 137.249 90.9453 138.805C92.5712 137.867 94.4067 137.353 96.2831 137.31C98.1595 137.267 100.017 137.696 101.684 138.558C100.974 136.755 99.6217 135.279 97.8879 134.415Z" fill="black"/>
</g>
<path d="M42.2025 156.966C43.3307 158.347 44.1549 159.949 44.6212 161.67C45.0019 163.831 49.8393 191.905 51.1046 195.814C52.6723 200.696 55.9308 210.629 68.8976 206.9C77.8557 204.325 78.1804 190.651 72.0777 183.16C65.975 175.668 55.8076 154.167 55.0686 151.378C54.3295 148.59 47.0623 140.18 38.6752 137.94C30.2882 135.701 26.0891 135.701 22.9986 131.624C19.908 127.548 16.1344 125.566 14.354 128.623C12.5736 131.68 22.9986 140.818 22.9986 140.818L37.5555 154.805L42.2025 156.966Z" fill="#FFBF9D"/>
<path d="M42.2025 156.966C43.3307 158.347 44.1549 159.949 44.6212 161.67C45.0019 163.831 49.8393 191.905 51.1046 195.814C52.6723 200.696 55.9308 210.629 68.8976 206.9C77.8557 204.325 78.1804 190.651 72.0777 183.16C65.975 175.668 55.8076 154.167 55.0686 151.378C54.3295 148.59 47.0623 140.18 38.6752 137.94C30.2882 135.701 26.0891 135.701 22.9986 131.624C19.908 127.548 16.1344 125.566 14.354 128.623C12.5736 131.68 22.9986 140.818 22.9986 140.818L37.5555 154.805L42.2025 156.966Z" fill="url(#paint0_linear_209_6916)"/>
<path d="M14.1523 140.259C14.1523 140.259 7.70249 132.42 3.49219 135.679C3.49219 135.679 8.95662 142.992 10.8042 144.974C12.6518 146.956 17.4444 148.333 17.4444 148.333C17.4444 148.333 22.237 153.876 24.8124 154.616C26.1783 155.075 27.6569 155.075 29.0228 154.616C29.0228 154.616 29.0899 155.87 33.1547 156.452C37.2194 157.034 47.9803 155.937 47.9803 155.937L54.6317 150.338C54.6317 150.338 51.2724 144.739 46.2111 144.627C41.1498 144.515 37.3538 148.389 37.3538 148.389L32.8747 148.311L30.1425 144.772C30.1425 144.772 30.6688 135.477 25.126 136.508C25.126 136.508 24.9356 133.529 22.5729 133.238C21.8974 133.179 21.223 133.362 20.6695 133.753C20.116 134.145 19.7192 134.72 19.5496 135.377C19.5496 135.377 20.0423 131.715 18.0491 130.976C17.7416 130.807 17.4027 130.705 17.0536 130.674C16.7044 130.643 16.3527 130.684 16.0204 130.796C15.6881 130.907 15.3824 131.086 15.1226 131.321C14.8628 131.557 14.6544 131.843 14.5106 132.163C13.9732 133.249 14.1523 140.259 14.1523 140.259Z" fill="#FFBF9D"/>
<path d="M14.1523 140.259C14.1523 140.259 7.70249 132.42 3.49219 135.679C3.49219 135.679 8.95662 142.992 10.8042 144.974C12.6518 146.956 17.4444 148.333 17.4444 148.333C17.4444 148.333 22.237 153.876 24.8124 154.616C26.1783 155.075 27.6569 155.075 29.0228 154.616C29.0228 154.616 29.0899 155.87 33.1547 156.452C37.2194 157.034 47.9803 155.937 47.9803 155.937L54.6317 150.338C54.6317 150.338 51.2724 144.739 46.2111 144.627C41.1498 144.515 37.3538 148.389 37.3538 148.389L32.8747 148.311L30.1425 144.772C30.1425 144.772 30.6688 135.477 25.126 136.508C25.126 136.508 24.9356 133.529 22.5729 133.238C21.8974 133.179 21.223 133.362 20.6695 133.753C20.116 134.145 19.7192 134.72 19.5496 135.377C19.5496 135.377 20.0423 131.715 18.0491 130.976C17.7416 130.807 17.4027 130.705 17.0536 130.674C16.7044 130.643 16.3527 130.684 16.0204 130.796C15.6881 130.907 15.3824 131.086 15.1226 131.321C14.8628 131.557 14.6544 131.843 14.5106 132.163C13.9732 133.249 14.1523 140.259 14.1523 140.259Z" fill="url(#paint1_linear_209_6916)"/>
<path d="M29.5377 154.637C28.8327 153.999 28.2085 153.276 27.6789 152.487C27.1526 151.781 26.5591 150.941 25.9097 149.956C25.5397 149.434 25.277 148.844 25.137 148.22C24.9985 147.574 24.9012 146.919 24.8459 146.26C24.6874 143.971 24.6874 141.674 24.8459 139.384C24.8486 138.434 24.9613 137.487 25.1818 136.562C25.2946 137.506 25.3208 138.458 25.2602 139.407C25.2602 141.154 25.2602 143.573 25.4282 146.204C25.4745 146.841 25.5643 147.473 25.6969 148.097C25.8125 148.663 26.041 149.2 26.3688 149.676C26.951 150.65 27.4885 151.512 28.0148 152.24C28.5871 152.996 29.0964 153.798 29.5377 154.637Z" fill="#D85B23"/>
<path d="M19.6169 150.695C19.144 150.076 18.8601 149.333 18.7995 148.556C18.5102 146.746 18.4238 144.909 18.5419 143.08C18.5926 140.494 18.9688 137.924 19.6617 135.432C19.8185 135.432 19.3929 138.881 19.1802 143.103C19.0706 144.901 19.0968 146.705 19.2586 148.5C19.337 149.866 19.6953 150.639 19.6169 150.695Z" fill="#D85B23"/>
<path d="M17.7914 148.759C17.14 148.322 16.565 147.781 16.0894 147.157C15.843 146.888 15.5855 146.597 15.3167 146.261C15.0008 145.905 14.7438 145.5 14.5553 145.063C14.2896 144.045 14.1357 143.001 14.0962 141.95C13.9506 139.71 13.9618 137.773 13.9954 136.351C13.9623 135.572 14.0339 134.792 14.2082 134.033C14.3873 134.033 14.4097 137.583 14.6785 141.872C14.72 142.877 14.8474 143.878 15.0592 144.862C15.2235 145.263 15.4421 145.64 15.7087 145.981L16.4029 146.911C16.9233 147.481 17.3883 148.1 17.7914 148.759Z" fill="#D85B23"/>
<path d="M37.354 148.445C36.985 148.515 36.6092 148.541 36.2342 148.523H32.9757H32.8861L32.8301 148.456C31.6943 147.275 30.7192 145.95 29.93 144.514V144.458C30.0011 143.045 29.8805 141.629 29.5716 140.248C29.3769 139.518 29.0423 138.834 28.5863 138.232C28.3675 137.93 28.0901 137.675 27.7708 137.483C27.4514 137.291 27.0966 137.164 26.7274 137.112C26.2433 137.054 25.7524 137.092 25.2829 137.224L24.9358 137.303V136.955C24.9215 136.263 24.7328 135.585 24.3872 134.984C24.0409 134.445 23.5124 134.047 22.8979 133.865C22.6167 133.773 22.3176 133.749 22.0255 133.796C21.7334 133.842 21.4566 133.958 21.2182 134.133C20.7246 134.445 20.3136 134.872 20.0201 135.376L19.6058 136.104V135.276C19.6901 134.138 19.4075 133.004 18.7995 132.039C18.4978 131.737 18.1274 131.512 17.7199 131.383C17.3125 131.254 16.88 131.226 16.4592 131.3C15.898 131.382 15.3748 131.632 14.9587 132.017C14.6788 132.286 14.578 132.476 14.5444 132.465C14.5956 132.253 14.704 132.059 14.858 131.905C15.2615 131.448 15.8047 131.137 16.4032 131.02C16.8774 130.912 17.371 130.923 17.8399 131.052C18.3089 131.181 18.7386 131.424 19.0907 131.759C19.8035 132.776 20.1581 134.001 20.0985 135.242L19.6394 135.141C19.9603 134.553 20.422 134.052 20.9831 133.685C21.2876 133.464 21.6398 133.318 22.0112 133.258C22.3826 133.197 22.763 133.225 23.1218 133.338C23.8633 133.571 24.4982 134.059 24.9134 134.716C25.3154 135.396 25.5388 136.166 25.5629 136.955L25.2046 136.698C25.7477 136.551 26.3133 136.505 26.873 136.563C27.3206 136.624 27.7508 136.776 28.1363 137.011C28.5219 137.246 28.8543 137.559 29.1125 137.93C29.6318 138.594 30.0125 139.355 30.2323 140.169C30.5488 141.602 30.6582 143.073 30.557 144.537V144.425C31.3073 145.839 32.2246 147.159 33.2893 148.355L33.1437 148.288L36.4022 148.423C36.7195 148.4 37.0381 148.408 37.354 148.445Z" fill="#D85B23"/>
<path d="M48.9767 144.906C47.1382 144.548 45.2451 144.578 43.419 144.995C41.5928 145.411 39.8739 146.205 38.3726 147.325C38.3726 147.325 38.7197 146.754 39.5707 146.116C40.6873 145.301 41.9584 144.723 43.3062 144.417C44.654 144.111 46.0501 144.083 47.409 144.335C47.9694 144.399 48.5066 144.595 48.9767 144.906Z" fill="#D85B23"/>
<path d="M206.46 136.989C205.837 136.749 205.146 136.749 204.523 136.989C201.585 137.905 198.819 139.302 196.337 141.121L198.499 148.568C199.338 146.955 203.246 144.85 204.612 143.652C206.099 142.577 207.121 140.975 207.468 139.173C207.525 138.75 207.46 138.321 207.282 137.934C207.103 137.547 206.818 137.219 206.46 136.989Z" fill="#D85B23"/>
<path d="M158.579 200.965C157.96 195.457 157.911 189.899 158.434 184.38C159.049 179.42 163.159 164.783 163.439 160.203C163.719 155.623 163.864 153.484 166.731 151.334C169.598 149.184 169.586 150.214 173.595 147.762C177.604 145.309 178.455 143.618 184.468 143.282C190.481 142.946 195.195 155.869 195.195 155.869C195.195 155.869 194.904 158.591 193.762 159.307C192.62 160.024 191.187 160.158 187.615 160.013C184.043 159.867 180.459 160.729 180.168 162.88C179.987 168.027 180.518 173.175 181.747 178.177C183.18 183.473 182.027 189.621 181.03 194.773C180.034 199.924 177.962 211.167 169.732 212.074C160.068 213.138 158.579 200.965 158.579 200.965Z" fill="#FFBF9D"/>
<path d="M158.579 200.965C157.96 195.457 157.911 189.899 158.434 184.38C159.049 179.42 163.159 164.783 163.439 160.203C163.719 155.623 163.864 153.484 166.731 151.334C169.598 149.184 169.586 150.214 173.595 147.762C177.604 145.309 178.455 143.618 184.468 143.282C190.481 142.946 195.195 155.869 195.195 155.869C195.195 155.869 194.904 158.591 193.762 159.307C192.62 160.024 191.187 160.158 187.615 160.013C184.043 159.867 180.459 160.729 180.168 162.88C179.987 168.027 180.518 173.175 181.747 178.177C183.18 183.473 182.027 189.621 181.03 194.773C180.034 199.924 177.962 211.167 169.732 212.074C160.068 213.138 158.579 200.965 158.579 200.965Z" fill="url(#paint2_linear_209_6916)"/>
<path d="M173.214 153.463C173.214 153.463 177.693 153.015 178.41 152.141C179.127 151.268 181.635 142.701 183.035 140.741C184.434 138.782 185.375 138.401 186.898 138.714C186.898 138.714 186.696 134.873 190.168 134.325C190.168 134.325 192.329 133.989 192.676 139.196C192.676 139.196 192.306 134.235 195.979 132.544C196.409 132.338 196.901 132.305 197.354 132.453C197.807 132.602 198.185 132.919 198.409 133.339C198.508 133.537 198.576 133.748 198.611 133.966C198.835 135.153 199.137 140.685 199.137 140.685C199.137 140.685 199.54 148.188 199.641 147.863C199.741 147.539 204.265 137.438 204.915 136.464C205.176 135.865 205.634 135.375 206.212 135.073C206.791 134.772 207.455 134.677 208.095 134.806C208.439 134.829 208.767 134.958 209.036 135.174C209.304 135.391 209.5 135.684 209.595 136.016C209.604 136.556 209.54 137.094 209.405 137.617C208.7 140.484 206.785 148.502 206.046 149.812C205.307 151.122 198.387 158.39 195.565 158.625C194.075 158.77 192.575 158.77 191.086 158.625L173.214 153.463Z" fill="#FFBF9D"/>
<path d="M173.214 153.463C173.214 153.463 177.693 153.015 178.41 152.141C179.127 151.268 181.635 142.701 183.035 140.741C184.434 138.782 185.375 138.401 186.898 138.714C186.898 138.714 186.696 134.873 190.168 134.325C190.168 134.325 192.329 133.989 192.676 139.196C192.676 139.196 192.306 134.235 195.979 132.544C196.409 132.338 196.901 132.305 197.354 132.453C197.807 132.602 198.185 132.919 198.409 133.339C198.508 133.537 198.576 133.748 198.611 133.966C198.835 135.153 199.137 140.685 199.137 140.685C199.137 140.685 199.54 148.188 199.641 147.863C199.741 147.539 204.265 137.438 204.915 136.464C205.176 135.865 205.634 135.375 206.212 135.073C206.791 134.772 207.455 134.677 208.095 134.806C208.439 134.829 208.767 134.958 209.036 135.174C209.304 135.391 209.5 135.684 209.595 136.016C209.604 136.556 209.54 137.094 209.405 137.617C208.7 140.484 206.785 148.502 206.046 149.812C205.307 151.122 198.387 158.39 195.565 158.625C194.075 158.77 192.575 158.77 191.086 158.625L173.214 153.463Z" fill="url(#paint3_linear_209_6916)"/>
<path d="M182.408 157.291C182.34 157.224 183.057 156.395 183.987 154.906C184.534 154.049 184.981 153.133 185.319 152.174C185.517 151.62 185.645 151.045 185.7 150.46C185.7 149.822 185.801 149.161 185.845 148.489C186.058 145.802 186.282 143.372 186.472 141.613C186.521 140.654 186.663 139.701 186.898 138.769C186.993 139.726 186.993 140.69 186.898 141.647C186.808 143.416 186.652 145.858 186.439 148.545C186.383 149.217 186.338 149.878 186.282 150.516C186.211 151.147 186.064 151.768 185.845 152.364C185.46 153.347 184.956 154.28 184.345 155.141C183.831 155.966 183.175 156.694 182.408 157.291Z" fill="#D85B23"/>
<path d="M192.631 138.69C192.817 139.619 192.903 140.565 192.889 141.512C192.978 143.248 193.057 145.656 193.113 148.31C193.113 148.971 193.113 149.62 193.113 150.247C193.159 150.872 193.133 151.499 193.034 152.117C192.757 153.129 192.318 154.09 191.735 154.962C191.281 155.797 190.695 156.553 190 157.201C189.932 157.201 190.548 156.261 191.388 154.749C191.887 153.891 192.264 152.967 192.508 152.005C192.571 151.428 192.571 150.846 192.508 150.27C192.508 149.642 192.508 148.993 192.508 148.332C192.452 145.667 192.441 143.259 192.508 141.512C192.45 140.57 192.491 139.624 192.631 138.69Z" fill="#D85B23"/>
<path d="M199.516 147.124C199.595 147.124 199.886 147.616 199.919 148.545C199.927 149.093 199.84 149.639 199.662 150.157C199.416 150.757 199.124 151.337 198.789 151.892C198.016 153.346 197.023 154.671 195.845 155.822C196.536 154.344 197.352 152.928 198.285 151.59C198.605 151.062 198.897 150.516 199.158 149.956C199.345 149.498 199.462 149.015 199.505 148.523C199.583 147.683 199.449 147.146 199.516 147.124Z" fill="#D85B23"/>
<path d="M168.915 153.416C168.915 153.158 173.203 153.908 178.085 151.949L178.321 151.87L178.141 152.038C179.06 149.653 179.911 147.559 180.549 145.991C180.835 145.144 181.21 144.329 181.669 143.561C181.508 144.445 181.253 145.308 180.907 146.137C180.359 147.704 179.575 149.866 178.668 152.251V152.374H178.544L178.309 152.453C177.138 152.852 175.946 153.185 174.737 153.449C173.739 153.651 172.72 153.73 171.703 153.684C170.765 153.728 169.826 153.638 168.915 153.416Z" fill="#D85B23"/>
<path d="M155.902 62.6529C156.698 51.6841 165.036 21.1639 147.038 23.2422C144.691 7.34703 129.81 -0.69676 115.468 0.0473233C76.5604 2.03582 70.544 37.585 76.6374 62.6658C86.515 88.9652 137.237 68.4003 155.89 62.7043C155.89 62.6914 155.89 62.6786 155.89 62.6658L155.902 62.6529Z" fill="#D76A40"/>
<path d="M155.902 62.6529C156.698 51.6841 165.036 21.1639 147.038 23.2422C144.691 7.34703 129.81 -0.69676 115.468 0.0473233C76.5604 2.03582 70.544 37.585 76.6374 62.6658C86.515 88.9652 137.237 68.4003 155.89 62.7043C155.89 62.6914 155.89 62.6786 155.89 62.6658L155.902 62.6529Z" fill="url(#paint4_linear_209_6916)"/>
<path d="M155.902 62.6529C156.698 51.6841 165.036 21.1639 147.038 23.2422C144.691 7.34703 129.81 -0.69676 115.468 0.0473233C76.5604 2.03582 70.544 37.585 76.6374 62.6658C86.515 88.9652 137.237 68.4003 155.89 62.7043C155.89 62.6914 155.89 62.6786 155.89 62.6658L155.902 62.6529Z" fill="#AF512C"/>
<path d="M117.954 71.6425C116.848 64.6616 116.337 44.7029 109.07 47.5826C106.001 37.7716 98.7117 34.0012 92.8011 35.7213C76.7623 40.3685 78.9058 63.2934 84.749 78.5656C92.3374 94.2755 110.889 76.8924 117.955 71.676C117.954 71.6679 117.952 71.6598 117.95 71.6517L117.954 71.6425Z" fill="#D76A40"/>
<path d="M117.954 71.6425C116.848 64.6616 116.337 44.7029 109.07 47.5826C106.001 37.7716 98.7117 34.0012 92.8011 35.7213C76.7623 40.3685 78.9058 63.2934 84.749 78.5656C92.3374 94.2755 110.889 76.8924 117.955 71.676C117.954 71.6679 117.952 71.6598 117.95 71.6517L117.954 71.6425Z" fill="url(#paint5_linear_209_6916)"/>
<path d="M117.954 71.6425C116.848 64.6616 116.337 44.7029 109.07 47.5826C106.001 37.7716 98.7117 34.0012 92.8011 35.7213C76.7623 40.3685 78.9058 63.2934 84.749 78.5656C92.3374 94.2755 110.889 76.8924 117.955 71.676C117.954 71.6679 117.952 71.6598 117.95 71.6517L117.954 71.6425Z" fill="#974423"/>
<path d="M88.3562 50.7741C90.4127 43.994 91.8572 23.4251 103.931 29.6738C109.356 20.8222 121.663 20.1513 131.501 24.5853C158.199 36.5963 153.936 59.5265 143.708 72.8288C130.547 85.8073 100.022 59.4023 88.353 50.8083C88.356 50.8006 88.3591 50.793 88.3621 50.7853L88.3562 50.7741Z" fill="#D76A40"/>
<path d="M88.3562 50.7741C90.4127 43.994 91.8572 23.4251 103.931 29.6738C109.356 20.8222 121.663 20.1513 131.501 24.5853C158.199 36.5963 153.936 59.5265 143.708 72.8288C130.547 85.8073 100.022 59.4023 88.353 50.8083C88.356 50.8006 88.3591 50.793 88.3621 50.7853L88.3562 50.7741Z" fill="url(#paint6_linear_209_6916)"/>
<path d="M88.3562 50.7741C90.4127 43.994 91.8572 23.4251 103.931 29.6738C109.356 20.8222 121.663 20.1513 131.501 24.5853C158.199 36.5963 153.936 59.5265 143.708 72.8288C130.547 85.8073 100.022 59.4023 88.353 50.8083C88.356 50.8006 88.3591 50.793 88.3621 50.7853L88.3562 50.7741Z" fill="#974423"/>
<path d="M135.274 56.5281C135.823 48.4859 134.593 40.1751 130.669 33.1347C129.125 30.3606 127.184 27.8221 125.251 25.2943C123.826 23.4209 122.373 21.5344 120.505 20.1056C115.276 16.1169 108.027 16.528 101.751 14.5593C100.677 16.3912 101.183 18.7115 101.78 20.7503C104.041 28.5007 107.268 36.0824 112.301 42.3962C117.333 48.7101 124.317 53.6854 132.225 55.2815C135.128 55.8677 138.154 55.9814 141.038 55.3182" fill="#964323"/>
<path d="M117.188 128.282C109.134 128.282 102.611 122.903 102.611 116.262V93.2964H131.764V116.262C131.764 122.903 125.241 128.282 117.188 128.282Z" fill="#F1B69A"/>
<path d="M117.188 128.282C109.134 128.282 102.611 122.903 102.611 116.262V93.2964H131.764V116.262C131.764 122.903 125.241 128.282 117.188 128.282Z" fill="url(#paint7_linear_209_6916)"/>
<path d="M131.764 93.2964V106.919C131.764 106.919 126.868 113.705 117.188 113.705C109.408 113.705 102.611 107.83 102.611 107.83V93.3092H131.764V93.2964Z" fill="#482212"/>
<path d="M84.1028 67.6557C77.8298 58.1109 70.5435 64.2432 70.5435 70.9656C70.5435 80.69 81.0882 89.0673 87.1174 82.0883C93.1466 75.1094 84.1028 67.6557 84.1028 67.6557Z" fill="#F1B69A"/>
<path d="M84.1028 67.6557C77.8298 58.1109 70.5435 64.2432 70.5435 70.9656C70.5435 80.69 81.0882 89.0673 87.1174 82.0883C93.1466 75.1094 84.1028 67.6557 84.1028 67.6557Z" fill="url(#paint8_linear_209_6916)"/>
<path d="M82.7278 72.0678C78.8166 64.7707 73.4178 71.5805 75.4824 74.2864" stroke="#E07E61" stroke-miterlimit="10" stroke-linecap="round"/>
<path d="M146.833 67.6552C153.106 58.1104 160.392 64.2427 160.392 70.9651C160.392 80.6895 149.847 89.0668 143.818 82.0879C137.789 75.1089 146.833 67.6552 146.833 67.6552Z" fill="#F1B69A"/>
<path d="M146.833 67.6552C153.106 58.1104 160.392 64.2427 160.392 70.9651C160.392 80.6895 149.847 89.0668 143.818 82.0879C137.789 75.1089 146.833 67.6552 146.833 67.6552Z" fill="url(#paint9_linear_209_6916)"/>
<path d="M148.206 72.0678C152.117 64.7707 157.516 71.5805 155.451 74.2864" stroke="#E07E61" stroke-miterlimit="10" stroke-linecap="round"/>
<path d="M115.442 105.129C90.6324 105.129 75.957 78.0081 81.7553 50.1563C86.5402 27.2181 144.408 27.2181 149.18 50.1563C154.978 77.9953 140.264 105.142 115.442 105.129Z" fill="#F1B69A"/>
<path d="M115.442 105.129C90.6324 105.129 75.957 78.0081 81.7553 50.1563C86.5402 27.2181 144.408 27.2181 149.18 50.1563C154.978 77.9953 140.264 105.142 115.442 105.129Z" fill="url(#paint10_linear_209_6916)"/>
<path d="M143.426 53.4184C143.426 53.4184 138.838 49.5325 133.664 48.2777C131.248 47.723 128.76 47.5522 126.291 47.7717C125.455 47.8381 124.623 47.9575 123.802 48.1293L121.549 42.7322L122.75 41.7877L124.004 45.3363L123.492 40.9444L123.95 40.9916L124.396 43.562V41.0254L125.03 40.877L125.111 43.2382L126.386 41.2143C126.386 41.2143 133.617 42.26 137.348 43.0156C138.063 43.128 138.766 43.311 139.446 43.562C140.572 44.1827 142.211 49.0873 142.211 49.0873L141.361 45.4105C141.361 45.4105 143.338 50.3218 143.426 53.4184Z" fill="#964323"/>
<path d="M123.787 48.1284L121.535 42.713L122.776 41.7891L124.3 48.0272L123.787 48.1284Z" fill="#AF512C"/>
<path style="mix-blend-mode:multiply" opacity="0.6" d="M143.426 53.4173C143.426 53.4173 138.838 49.5314 133.664 48.2766C131.248 47.7219 128.76 47.5511 126.291 47.7706C126.655 47.6829 133.219 46.2324 136.99 47.1634H134.109C134.109 47.1634 138.751 47.7166 139.958 48.1821C139.178 46.4854 138.009 44.9967 136.545 43.8375L137.374 43.0347C138.09 43.1471 138.793 43.3301 139.472 43.5811C140.599 44.2018 142.238 49.1064 142.238 49.1064L141.388 45.4296C141.388 45.4296 143.338 50.3207 143.426 53.4173Z" fill="url(#paint11_linear_209_6916)"/>
<path d="M126.406 41.2085C126.406 41.2085 132.787 43.0165 136.288 44.0554L135.351 43.509C135.351 43.509 138.44 44.0082 139.817 45.9174L138.73 43.3133C138.73 43.3133 128.146 41.0466 126.406 41.2085Z" fill="#AF512C"/>
<path d="M88.0352 53.101C88.0352 53.101 92.4942 49.3028 97.5401 48.0547C99.8926 47.5048 102.317 47.3272 104.724 47.5285C105.543 47.5875 106.356 47.7002 107.16 47.8658L109.339 42.5835L108.124 41.6862L106.91 45.1471L107.396 40.8766L106.944 40.9171L106.526 43.42V40.9576L105.905 40.8159L105.831 43.1097L104.59 41.1128C104.59 41.1128 97.5333 42.1652 93.8973 42.9208C93.2073 43.037 92.5298 43.2177 91.8736 43.4605C90.774 44.0677 89.1752 48.8576 89.1752 48.8576L89.9915 45.282C89.9915 45.282 88.1094 50.0921 88.0352 53.101Z" fill="#964323"/>
<path d="M107.18 47.8645L109.351 42.584L108.137 41.687L106.674 47.7701L107.18 47.8645Z" fill="#AF512C"/>
<path style="mix-blend-mode:multiply" opacity="0.6" d="M88.0352 53.1034C88.0352 53.1034 92.4942 49.3052 97.5401 48.0572C99.8926 47.5072 102.317 47.3296 104.724 47.531C104.38 47.45 97.9786 46.067 94.2886 46.9912L97.1016 46.9508C97.1016 46.9508 92.5684 47.5107 91.4013 47.9695C92.1512 46.3129 93.2842 44.8584 94.7068 43.726L93.8973 42.9502C93.2073 43.0664 92.5298 43.2471 91.8736 43.4899C90.774 44.0971 89.1752 48.887 89.1752 48.887L89.9915 45.3114C89.9915 45.3114 88.1094 50.0946 88.0352 53.1034Z" fill="url(#paint12_linear_209_6916)"/>
<path d="M104.59 41.1137C104.59 41.1137 98.37 42.9082 94.9566 43.9336L95.8673 43.4007C95.8673 43.4007 92.8586 43.8932 91.5229 45.7619L92.5753 43.2253C92.5753 43.2253 102.903 40.9922 104.59 41.1137Z" fill="#AF512C"/>
<g clip-path="url(#clip1_209_6916)">
<path d="M107.056 74.8626C106.357 73.718 107.716 68.418 109.904 63.7276C111.8 59.6718 111.373 56.126 116.518 56.126C122.24 56.126 121.275 59.5784 123.159 63.5099C125.372 68.1194 126.673 73.4443 125.463 74.8626C125.094 75.2919 123.949 75.5469 121.508 75.6589C120.175 75.7211 118.706 77.7863 116.499 77.7863C114.098 77.7863 112.667 75.6091 111.768 75.6091C108.933 75.6091 107.243 75.1985 107.043 74.8689L107.056 74.8626Z" fill="url(#paint13_linear_209_6916)"/>
<path style="mix-blend-mode:multiply" opacity="0.7" d="M111.391 73.7524C111.391 73.8022 112.381 73.7089 112.924 73.6343C111.96 72.3719 110.53 69.014 111.016 67.4283C111.19 66.8686 109.909 64.9968 109.113 65.7741C108.751 66.1286 106.694 70.6121 108.124 69.8846C110.272 68.8025 111.268 70.7427 111.391 73.7524Z" fill="url(#paint14_linear_209_6916)"/>
<path style="mix-blend-mode:multiply" opacity="0.7" d="M121.741 73.7524C121.741 73.8022 120.751 73.7089 120.208 73.6343C121.172 72.3719 122.602 69.014 122.117 67.4283C121.942 66.8686 123.223 64.9968 124.019 65.7741C124.381 66.1286 126.439 70.6121 125.009 69.8846C122.861 68.8025 121.864 70.7427 121.741 73.7524Z" fill="url(#paint15_linear_209_6916)"/>
<g style="mix-blend-mode:multiply" opacity="0.6">
<path d="M125.302 69.2577C125.302 69.2577 125.023 71.6153 124.81 73.5188C124.596 75.4286 123.645 74.4146 121.243 74.4519C118.939 74.483 114.091 74.483 111.787 74.4519C109.386 74.4208 108.435 75.4286 108.221 73.5188C108.007 71.6091 107.729 69.2577 107.729 69.2577C107.729 69.2577 105.781 74.8625 107.729 75.4286C109.237 75.864 111.503 75.2046 112.985 76.2124C114.454 77.2139 115.289 77.7738 116.499 77.78C116.499 77.78 116.506 77.78 116.512 77.78C116.519 77.78 116.519 77.78 116.525 77.78C117.735 77.7738 118.564 77.2139 120.04 76.2062C121.522 75.1984 123.748 75.6463 125.295 75.4224C126.842 75.1984 125.295 69.2515 125.295 69.2515L125.302 69.2577Z" fill="#CE77B5"/>
</g>
<path d="M108.493 75.4906C111.359 74.1972 112.679 75.273 112.944 75.4906C113.209 75.7083 112.536 75.8513 112.077 75.7829C111.618 75.7145 108.493 75.4906 108.493 75.4906Z" fill="#812751"/>
<path d="M124.718 75.4906C121.851 74.1972 120.531 75.273 120.266 75.4906C120.001 75.7083 120.674 75.8513 121.133 75.7829C121.592 75.7083 124.718 75.4906 124.718 75.4906Z" fill="#812751"/>
<g style="mix-blend-mode:multiply" opacity="0.6">
<path d="M106.635 75.4848C106.635 74.6077 112.428 74.1411 116.104 74.1411C119.781 74.1411 125.58 74.6201 125.431 75.4848C125.282 76.3495 119.813 80.312 115.418 80.312C111.024 80.312 106.635 76.0384 106.635 75.4848Z" fill="#CE5982"/>
</g>
<g style="mix-blend-mode:soft-light" opacity="0.5">
<path d="M121.76 66.9553C121.042 64.7913 118.072 64.0948 117.625 64.6545C117.185 65.2141 118.583 72.583 119.152 72.8069C119.715 73.0308 120.026 73.236 120.725 72.2348C121.423 71.2336 122.258 68.4477 121.76 66.9491V66.9553Z" fill="#FFF9B5"/>
</g>
<path d="M118.92 71.2733C119.502 70.8318 119.962 72.9212 119.47 72.8092C118.978 72.6973 118.532 71.578 118.92 71.2733Z" fill="white"/>
</g>
<g clip-path="url(#clip2_209_6916)">
<g style="mix-blend-mode:soft-light" opacity="0.5">
<path d="M103.204 60.0475C103.204 60.0475 102.012 51.3803 95.344 53.5846C93.5164 54.1919 90.1167 57.6333 90.1167 57.6333C90.1167 57.6333 97.8687 52.4524 103.197 60.0475H103.204Z" fill="#F8A486"/>
</g>
<path d="M105.358 67.0201C104.986 67.5899 103.29 67.1251 102.539 67.2825C96.2741 68.5721 88.7544 66.9901 88.7622 64.7034C88.7777 62.4091 87.8484 58.5104 92.5026 56.681C97.1569 54.8516 101.827 56.741 103.337 60.5797C104.847 64.411 105.714 66.4803 105.358 67.0276V67.0201Z" fill="url(#paint16_linear_209_6916)"/>
<path d="M102.454 61.1797C102.787 63.8639 100.804 66.3081 98.0318 66.6305C95.2594 66.9529 92.7347 65.0335 92.4017 62.3494C92.0687 59.6652 94.0513 57.221 96.8237 56.8986C99.5961 56.5762 102.121 58.4956 102.454 61.1797Z" fill="url(#paint17_linear_209_6916)"/>
<path d="M101.97 61.2381C102.272 63.6665 100.484 65.8775 97.9675 66.1623C95.4593 66.4546 93.1756 64.7233 92.8814 62.2874C92.5795 59.8591 94.3678 57.648 96.8837 57.3632C99.392 57.0709 101.676 58.8023 101.97 61.2381Z" fill="url(#paint18_linear_209_6916)"/>
<path style="mix-blend-mode:multiply" d="M100.253 61.4412C100.439 62.9477 99.3315 64.3193 97.7677 64.4991C96.2117 64.679 94.795 63.6072 94.6092 62.0933C94.4234 60.5868 95.5305 59.2152 97.0942 59.0353C98.658 58.8554 100.067 59.9272 100.253 61.4412Z" fill="url(#paint19_linear_209_6916)"/>
<path d="M94.2053 61.5547C94.1124 62.3117 91.2325 63.4509 91.3254 62.7014C91.4183 61.9519 94.2982 60.8052 94.2053 61.5547Z" fill="#FFFBF8"/>
<g style="mix-blend-mode:soft-light">
<path d="M94.2218 64.4856C94.2605 65.4225 96.7223 66.3819 97.9687 66.1645C100.012 65.8123 101.599 64.1484 101.507 63.0316C101.414 61.9149 100.461 62.8742 99.3157 63.8186C98.17 64.763 96.7146 64.673 95.6153 64.0659C95.2282 63.8561 94.1831 63.8261 94.2141 64.4856H94.2218Z" fill="#C2B544"/>
</g>
<path d="M104.227 62.8733C104.227 62.8733 102.88 56.7402 98.5429 55.6231C94.1984 54.5135 89.1491 56.3654 88.4986 57.5725C87.8404 58.7796 88.6922 62.6033 88.6922 62.6033C88.6922 62.6033 88.7077 57.9324 93.6253 56.7777C98.5429 55.6231 101.974 58.3222 104.227 62.8733Z" fill="#53200C"/>
<path d="M88.9403 65.3105C91.039 66.2178 94.2064 67.3574 98.9381 67.7173C98.9381 67.7173 92.5414 67.8147 90.1097 67.3649C87.678 66.915 88.9403 65.3105 88.9403 65.3105Z" fill="#DA6B7C"/>
<path d="M105.342 65.7832C105.342 65.7832 103.461 66.6151 103.972 67.2972C103.972 67.2972 105.056 67.4846 105.358 67.0199C105.683 66.5177 105.342 65.7832 105.342 65.7832Z" fill="#DA6B7C"/>
<g style="mix-blend-mode:multiply" opacity="0.6">
<path d="M88.7233 63.5637C88.7233 63.5637 89.4513 59.1401 92.8587 57.8355C96.2662 56.5309 100.301 57.0483 104.467 63.4737C104.467 63.4737 102.469 57.3632 97.0561 56.6134C91.6506 55.8636 87.9876 59.5 88.7233 63.5637Z" fill="#CE77B5"/>
</g>
<g style="mix-blend-mode:soft-light" opacity="0.5">
<path d="M128.458 60.0475C128.458 60.0475 129.651 51.3803 136.311 53.5846C138.138 54.1919 141.538 57.6333 141.538 57.6333C141.538 57.6333 133.786 52.4524 128.458 60.0475Z" fill="#F8A486"/>
</g>
<path d="M126.298 67.0201C126.67 67.5899 128.366 67.1251 129.117 67.2825C135.382 68.5721 142.902 66.9901 142.894 64.7034C142.887 62.4166 143.808 58.5104 139.154 56.681C134.5 54.8516 129.83 56.741 128.32 60.5797C126.81 64.411 125.942 66.4803 126.298 67.0276V67.0201Z" fill="url(#paint20_linear_209_6916)"/>
<path d="M137.353 65.6088C139.549 63.9381 139.93 60.8603 138.204 58.7342C136.479 56.6081 133.3 56.2389 131.104 57.9096C128.908 59.5802 128.526 62.6581 130.252 64.7842C131.978 66.9103 135.157 67.2794 137.353 65.6088Z" fill="url(#paint21_linear_209_6916)"/>
<path d="M129.683 61.2381C129.381 63.6665 131.169 65.8775 133.685 66.1623C136.193 66.4546 138.477 64.7233 138.771 62.2874C139.073 59.8591 137.285 57.648 134.769 57.3632C132.261 57.0709 129.977 58.8023 129.683 61.2381Z" fill="url(#paint22_linear_209_6916)"/>
<path style="mix-blend-mode:multiply" d="M131.41 61.4412C131.224 62.9477 132.331 64.3193 133.895 64.4991C135.451 64.679 136.868 63.6072 137.054 62.0933C137.239 60.5793 136.132 59.2152 134.569 59.0353C133.005 58.8554 131.596 59.9272 131.41 61.4412Z" fill="url(#paint23_linear_209_6916)"/>
<path d="M137.45 61.5541C137.543 62.3111 140.423 63.4503 140.33 62.7008C140.237 61.9439 137.358 60.8046 137.45 61.5541Z" fill="#FFFBF8"/>
<g style="mix-blend-mode:soft-light">
<path d="M137.432 64.4852C137.393 65.422 134.932 66.3814 133.685 66.164C131.642 65.8118 130.055 64.1479 130.147 63.0311C130.24 61.9144 131.193 62.8737 132.338 63.8181C133.484 64.7625 134.939 64.6725 136.039 64.0654C136.426 63.8556 137.471 63.8256 137.44 64.4852H137.432Z" fill="#C2B544"/>
</g>
<path d="M127.429 62.8732C127.429 62.8732 128.776 56.7401 133.113 55.623C137.45 54.5059 142.499 56.3578 143.157 57.5724C143.815 58.7795 142.964 62.6032 142.964 62.6032C142.964 62.6032 142.948 57.9323 138.031 56.7776C133.113 55.623 129.682 58.3221 127.429 62.8732Z" fill="#53200C"/>
<path d="M142.716 65.3105C140.617 66.2178 137.45 67.3574 132.718 67.7173C132.718 67.7173 139.115 67.8147 141.547 67.3649C143.978 66.915 142.716 65.3105 142.716 65.3105Z" fill="#DA6B7C"/>
<path d="M126.322 65.7832C126.322 65.7832 128.203 66.6151 127.692 67.2972C127.692 67.2972 126.623 67.4771 126.306 67.0199C125.996 66.5777 126.322 65.7832 126.322 65.7832Z" fill="#DA6B7C"/>
<g style="mix-blend-mode:multiply" opacity="0.6">
<path d="M142.933 63.5637C142.933 63.5637 142.205 59.1401 138.798 57.8355C135.39 56.5309 131.355 57.0483 127.189 63.4737C127.189 63.4737 129.187 57.3632 134.6 56.6134C140.013 55.8636 143.676 59.5 142.941 63.5637H142.933Z" fill="#CE77B5"/>
</g>
</g>
<path d="M152.054 59.2786C152.054 59.2786 151.733 84.2696 142.407 95.9568C133.094 107.644 116.597 108.401 116.597 108.401C116.597 108.401 98.1118 107.644 88.7986 95.9568C79.4854 84.2696 79.1519 59.2786 79.1519 59.2786L80.4475 56.7642C81.3968 63.4609 85.7712 80.8186 91.0435 84.6544C99.6768 81.7679 106.129 81.4472 115.981 81.4472C126.513 81.4472 133.222 82.5761 140.547 83.4998C144.781 79.7666 149.925 62.8708 150.771 56.7642L152.067 59.2786H152.054Z" fill="#D76A40"/>
<path d="M152.054 59.2786C152.054 59.2786 151.733 84.2696 142.407 95.9568C133.094 107.644 116.597 108.401 116.597 108.401C116.597 108.401 98.1118 107.644 88.7986 95.9568C79.4854 84.2696 79.1519 59.2786 79.1519 59.2786L80.4475 56.7642C81.3968 63.4609 85.7712 80.8186 91.0435 84.6544C99.6768 81.7679 106.129 81.4472 115.981 81.4472C126.513 81.4472 133.222 82.5761 140.547 83.4998C144.781 79.7666 149.925 62.8708 150.771 56.7642L152.067 59.2786H152.054Z" fill="#AF512C"/>
<g style="mix-blend-mode:multiply" opacity="0.8">
<path d="M107.156 89.5903C107.156 89.5903 114.878 93.4808 119.341 93.2591C122.413 93.1338 125.355 92.109 127.717 90.3412C124.67 90.802 121.586 91.0412 118.496 91.0564C114.66 91.0316 110.845 90.5384 107.156 89.5903Z" fill="#C73F4C"/>
</g>
<path d="M129.613 90.212L126.489 89.7901L111.675 88.8103L107.897 88.3169L103.418 87.7018C103.665 87.3594 103.969 87.053 104.319 86.7936C106.271 85.2989 109.897 84.548 111.491 84.548C120.568 84.5194 129.613 90.212 129.613 90.212Z" fill="#DE5659"/>
<g style="mix-blend-mode:multiply" opacity="0.6">
<path d="M116.878 87.7029L107.897 88.3179L103.418 87.7029C103.665 87.3604 103.969 87.0541 104.319 86.7946C109.491 86.3584 116.878 87.7029 116.878 87.7029Z" fill="#EB6466"/>
</g>
<path d="M131.805 90.0354C129.621 90.7505 122.417 89.1486 122.417 89.1486C122.417 89.1486 115.882 89.2988 109.387 89.2988C107.419 89.2988 100.398 87.0103 100.398 87.0103C100.398 87.0103 102.789 88.0329 108.367 87.6896C116.488 87.1819 119.922 87.8255 125.899 89.4275C127.805 89.9712 129.811 90.1776 131.805 90.0354Z" fill="#862254"/>
<path d="M129.789 90.235C125.45 90.8618 121.058 91.1465 116.664 91.086C111.788 91.1157 106.994 89.9697 102.781 87.7677C102.781 87.7677 106.766 87.925 107.101 87.9178C108.288 87.9178 109.818 87.832 111.763 87.7391C114.091 87.6557 116.423 87.7923 118.72 88.1467C121.11 88.4828 123.637 88.9906 126.314 89.577C127.948 89.9489 129.789 90.235 129.789 90.235Z" fill="#D74C4F"/>
<path d="M101.728 86.3671C101.344 86.6338 101.067 87.0051 100.937 87.4252C100.808 87.8454 100.834 88.2919 101.011 88.6977C101.011 88.6977 99.0836 87.7612 99.8961 87.0105C100.133 86.7927 100.419 86.6227 100.735 86.5117C101.051 86.4008 101.39 86.3515 101.728 86.3671Z" fill="#D74C4F"/>
<g style="mix-blend-mode:multiply" opacity="0.6">
<path d="M118.775 88.1467C112.814 87.9036 108.902 87.8964 107.156 87.9178C108.344 87.9178 109.874 87.832 111.818 87.7391C114.147 87.6557 116.479 87.7923 118.775 88.1467Z" fill="#EB6466"/>
</g>
<g style="mix-blend-mode:multiply" opacity="0.5">
<path d="M113.006 93.5717C116.482 93.5717 121.46 91.7756 122.229 93.5717C122.999 95.3677 118.766 98.9599 116.123 98.7033C113.481 98.4467 109.029 93.5589 112.993 93.5717H113.006Z" fill="#F1B69A"/>
</g>
<g clip-path="url(#clip3_209_6916)">
<path d="M116.587 59.1055C118.083 59.2717 118.573 60.6483 118.573 60.6483L119.692 63.7594C122.941 72.7775 126.741 73.5659 136.427 73.2889C140.31 73.1781 144.132 72.6155 147.123 71.4947C150.113 70.3738 150.686 67.3181 150.686 67.3181C150.686 67.3181 152.182 61.7436 152.269 61.2918C152.357 60.8444 153.651 59.357 153.651 59.357V53.8123C153.651 53.8123 143.301 52.6616 135.88 52.4102C126.452 52.0906 120.4 54.8821 116.675 55.2955C114.497 55.3636 113.61 55.4361 110.61 54.6519C107.947 53.9572 102.013 52.1587 94.5923 52.4102C87.1761 52.6616 76.8257 53.8123 76.8257 53.8123V59.3612C76.8257 59.3612 78.12 60.8444 78.2075 61.2961C78.2949 61.7436 79.7904 67.3223 79.7904 67.3223C79.7904 67.3223 80.3633 70.3781 83.3542 71.4989C86.3452 72.6198 90.167 73.1824 94.0501 73.2932C97.9331 73.404 102.879 73.4594 105.581 71.614C108.283 69.7644 109.665 66.8791 110.785 63.768L111.904 60.6568C111.904 60.6568 112.394 59.2845 113.889 59.1141C115.053 58.9819 115.415 58.9819 116.592 59.1141L116.587 59.1055ZM149.567 63.1116C148.933 68.5199 148.015 69.5001 145.4 70.5358C142.785 71.5714 131.398 72.9181 126.422 70.621C126.422 70.621 123.26 69.5001 121.564 64.1217C119.867 58.7433 120.444 56.2203 123.921 55.24C123.921 55.24 129.037 53.8379 134.787 53.7569C140.537 53.6717 146.117 54.1789 147.669 55.1037C149.221 56.0285 150.201 57.7076 149.567 63.1202V63.1116ZM82.8076 55.0994C84.36 54.1746 89.9397 53.6717 95.6899 53.7527C101.44 53.8379 106.556 55.24 106.556 55.24C110.037 56.2203 110.61 58.7433 108.913 64.1217C107.217 69.5001 104.055 70.621 104.055 70.621C99.0831 72.9181 87.6964 71.5756 85.0771 70.5358C82.4622 69.5001 81.5395 68.5199 80.9099 63.1116C80.2758 57.7034 81.2553 56.02 82.8076 55.0951V55.0994ZM151.911 58.4918C151.631 58.4918 151.408 58.2702 151.408 58.0017C151.408 57.7332 151.635 57.5116 151.911 57.5116C152.186 57.5116 152.414 57.7332 152.414 58.0017C152.414 58.2702 152.186 58.4918 151.911 58.4918ZM78.0632 58.0017C78.0632 57.729 78.2906 57.5116 78.5661 57.5116C78.8415 57.5116 79.0689 57.7332 79.0689 58.0017C79.0689 58.2702 78.8415 58.4918 78.5661 58.4918C78.2906 58.4918 78.0632 58.2702 78.0632 58.0017ZM151.911 56.1095C151.631 56.1095 151.408 55.8878 151.408 55.6194C151.408 55.3509 151.635 55.1292 151.911 55.1292C152.186 55.1292 152.414 55.3509 152.414 55.6194C152.414 55.8878 152.186 56.1095 151.911 56.1095ZM78.0632 55.6194C78.0632 55.3466 78.2906 55.1292 78.5661 55.1292C78.8415 55.1292 79.0689 55.3509 79.0689 55.6194C79.0689 55.8878 78.8415 56.1095 78.5661 56.1095C78.2906 56.1095 78.0632 55.8878 78.0632 55.6194Z" fill="#710C0C"/>
<path d="M116.587 59.1055C118.083 59.2717 118.573 60.6483 118.573 60.6483L119.692 63.7594C122.941 72.7775 126.741 73.5659 136.427 73.2889C140.31 73.1781 144.132 72.6155 147.123 71.4947C150.113 70.3738 150.686 67.3181 150.686 67.3181C150.686 67.3181 152.182 61.7436 152.269 61.2918C152.357 60.8444 153.651 59.357 153.651 59.357V53.8123C153.651 53.8123 143.301 52.6616 135.88 52.4102C126.452 52.0906 120.4 54.8821 116.675 55.2955C114.497 55.3636 113.61 55.4361 110.61 54.6519C107.947 53.9572 102.013 52.1587 94.5923 52.4102C87.1761 52.6616 76.8257 53.8123 76.8257 53.8123V59.3612C76.8257 59.3612 78.12 60.8444 78.2075 61.2961C78.2949 61.7436 79.7904 67.3223 79.7904 67.3223C79.7904 67.3223 80.3633 70.3781 83.3542 71.4989C86.3452 72.6198 90.167 73.1824 94.0501 73.2932C97.9331 73.404 102.879 73.4594 105.581 71.614C108.283 69.7644 109.665 66.8791 110.785 63.768L111.904 60.6568C111.904 60.6568 112.394 59.2845 113.889 59.1141C115.053 58.9819 115.415 58.9819 116.592 59.1141L116.587 59.1055ZM149.567 63.1116C148.933 68.5199 148.015 69.5001 145.4 70.5358C142.785 71.5714 131.398 72.9181 126.422 70.621C126.422 70.621 123.26 69.5001 121.564 64.1217C119.867 58.7433 120.444 56.2203 123.921 55.24C123.921 55.24 129.037 53.8379 134.787 53.7569C140.537 53.6717 146.117 54.1789 147.669 55.1037C149.221 56.0285 150.201 57.7076 149.567 63.1202V63.1116ZM82.8076 55.0994C84.36 54.1746 89.9397 53.6717 95.6899 53.7527C101.44 53.8379 106.556 55.24 106.556 55.24C110.037 56.2203 110.61 58.7433 108.913 64.1217C107.217 69.5001 104.055 70.621 104.055 70.621C99.0831 72.9181 87.6964 71.5756 85.0771 70.5358C82.4622 69.5001 81.5395 68.5199 80.9099 63.1116C80.2758 57.7034 81.2553 56.02 82.8076 55.0951V55.0994ZM151.911 58.4918C151.631 58.4918 151.408 58.2702 151.408 58.0017C151.408 57.7332 151.635 57.5116 151.911 57.5116C152.186 57.5116 152.414 57.7332 152.414 58.0017C152.414 58.2702 152.186 58.4918 151.911 58.4918ZM78.0632 58.0017C78.0632 57.729 78.2906 57.5116 78.5661 57.5116C78.8415 57.5116 79.0689 57.7332 79.0689 58.0017C79.0689 58.2702 78.8415 58.4918 78.5661 58.4918C78.2906 58.4918 78.0632 58.2702 78.0632 58.0017ZM151.911 56.1095C151.631 56.1095 151.408 55.8878 151.408 55.6194C151.408 55.3509 151.635 55.1292 151.911 55.1292C152.186 55.1292 152.414 55.3509 152.414 55.6194C152.414 55.8878 152.186 56.1095 151.911 56.1095ZM78.0632 55.6194C78.0632 55.3466 78.2906 55.1292 78.5661 55.1292C78.8415 55.1292 79.0689 55.3509 79.0689 55.6194C79.0689 55.8878 78.8415 56.1095 78.5661 56.1095C78.2906 56.1095 78.0632 55.8878 78.0632 55.6194Z" fill="#1753E8"/>
</g>
<path d="M100.04 7.74219C100.396 14.9657 102.369 22.2414 106.611 28.1018C108.28 30.4113 110.279 32.4689 112.269 34.5179C113.738 36.0373 115.233 37.5653 117.05 38.6419C122.135 41.646 128.558 40.5173 134.364 41.6112C135.129 39.8661 134.434 37.8519 133.687 36.0981C130.853 29.4302 127.176 23.0141 122.022 17.9177C116.867 12.8212 110.114 9.12265 102.891 8.53226C100.24 8.31521 97.5277 8.53226 95.0244 9.42652" fill="#AF512C"/>
<g clip-path="url(#clip4_209_6916)">
<path d="M186 33.05H190.31C190.307 32.56 190.403 32.0744 190.591 31.6221C190.779 31.1697 191.056 30.7598 191.406 30.4166C191.756 30.0734 192.171 29.8039 192.627 29.6241C193.083 29.4444 193.57 29.3579 194.06 29.37C194.785 29.3403 195.5 29.5385 196.107 29.9367C196.713 30.3349 197.179 30.9131 197.44 31.59C197.67 32.1561 197.761 32.7688 197.707 33.3774C197.653 33.986 197.455 34.5731 197.13 35.09C196.4 36.29 194.8 37.39 191.89 36.88V46.6H196.16V40.9C197.913 40.3911 199.451 39.3194 200.535 37.8501C201.62 36.3809 202.19 34.5958 202.16 32.77C202.16 26.46 196.5 25 194.08 25C192.22 25 185.92 25.45 186 33.05Z" fill="#DCDEE6"/>
<path d="M196.22 48.6001H191.89V52.6401H196.22V48.6001Z" fill="#DCDEE6"/>
</g>
<g clip-path="url(#clip5_209_6916)">
<path d="M39.9996 15.6986H43.469C43.4667 15.2909 43.5436 14.8868 43.6952 14.5104C43.8469 14.134 44.07 13.7929 44.3515 13.5073C44.6331 13.2217 44.9672 12.9975 45.3341 12.8479C45.701 12.6983 46.0933 12.6264 46.4876 12.6364C47.0709 12.6117 47.6471 12.7766 48.1351 13.108C48.6232 13.4394 48.9985 13.9205 49.2083 14.4837C49.3932 14.9548 49.4671 15.4647 49.4237 15.9711C49.3803 16.4775 49.2209 16.966 48.9588 17.3962C48.3712 18.3947 47.0832 19.3101 44.7408 18.8857V26.9739H48.178V22.2308C49.5896 21.8073 50.8272 20.9155 51.7 19.6929C52.5729 18.4704 53.0324 16.9849 53.0077 15.4656C53.0077 10.2149 48.4516 9 46.5037 9C45.0064 9 39.9352 9.37445 39.9996 15.6986Z" fill="#DCDEE6"/>
<path d="M48.2267 28.6382H44.7412V32H48.2267V28.6382Z" fill="#DCDEE6"/>
</g>
<g clip-path="url(#clip6_209_6916)">
<path d="M22.9998 98.4461H27.5367C27.5337 97.932 27.6343 97.4225 27.8325 96.9479C28.0308 96.4733 28.3227 96.0432 28.6908 95.6831C29.0589 95.323 29.4958 95.0403 29.9757 94.8517C30.4555 94.663 30.9684 94.5724 31.484 94.585C32.2469 94.5539 33.0004 94.7619 33.6386 95.1797C34.2767 95.5974 34.7675 96.2041 35.0419 96.9143C35.2838 97.5082 35.3803 98.1511 35.3236 98.7896C35.2668 99.4282 35.0584 100.044 34.7156 100.586C33.9472 101.846 32.263 103 29.1998 102.465V112.663H33.6946V106.682C35.5405 106.148 37.159 105.024 38.3004 103.482C39.4417 101.941 40.0426 100.068 40.0103 98.1523C40.0103 91.5318 34.0525 90 31.5051 90C29.5472 90 22.9156 90.4721 22.9998 98.4461Z" fill="#DCDEE6"/>
<path d="M33.7581 114.761H29.2002V119H33.7581V114.761Z" fill="#DCDEE6"/>
</g>
</g>
<defs>
<linearGradient id="paint0_linear_209_6916" x1="45.1795" y1="207.726" x2="45.1795" y2="127.137" gradientUnits="userSpaceOnUse">
<stop stop-color="#E9A691"/>
<stop offset="0.08" stop-color="#ECA68D"/>
<stop offset="0.51" stop-color="#F9AB80"/>
<stop offset="0.57" stop-color="#FAA67C"/>
<stop offset="0.78" stop-color="#FD9A75"/>
<stop offset="1" stop-color="#FF9673"/>
</linearGradient>
<linearGradient id="paint1_linear_209_6916" x1="45.7637" y1="164.725" x2="44.3059" y2="147.233" gradientUnits="userSpaceOnUse">
<stop stop-color="#E9A691"/>
<stop offset="0.08" stop-color="#ECA68D"/>
<stop offset="0.51" stop-color="#F9AB80"/>
<stop offset="0.57" stop-color="#FAA67C"/>
<stop offset="0.78" stop-color="#FD9A75"/>
<stop offset="1" stop-color="#FF9673"/>
</linearGradient>
<linearGradient id="paint2_linear_209_6916" x1="176.634" y1="212.146" x2="176.634" y2="143.276" gradientUnits="userSpaceOnUse">
<stop stop-color="#E9A691"/>
<stop offset="0.08" stop-color="#ECA68D"/>
<stop offset="0.51" stop-color="#F9AB80"/>
<stop offset="0.57" stop-color="#FAA67C"/>
<stop offset="0.78" stop-color="#FD9A75"/>
<stop offset="1" stop-color="#FF9673"/>
</linearGradient>
<linearGradient id="paint3_linear_209_6916" x1="165.29" y1="170.556" x2="179.868" y2="151.607" gradientUnits="userSpaceOnUse">
<stop stop-color="#E9A691"/>
<stop offset="0.08" stop-color="#ECA68D"/>
<stop offset="0.51" stop-color="#F9AB80"/>
<stop offset="0.57" stop-color="#FAA67C"/>
<stop offset="0.78" stop-color="#FD9A75"/>
<stop offset="1" stop-color="#FF9673"/>
</linearGradient>
<linearGradient id="paint4_linear_209_6916" x1="116.556" y1="66.3046" x2="116.556" y2="18.7557" gradientUnits="userSpaceOnUse">
<stop stop-color="#E8A678"/>
<stop offset="1" stop-color="#C76A4E"/>
</linearGradient>
<linearGradient id="paint5_linear_209_6916" x1="101.95" y1="77.376" x2="95.7104" y2="47.4149" gradientUnits="userSpaceOnUse">
<stop stop-color="#E8A678"/>
<stop offset="1" stop-color="#C76A4E"/>
</linearGradient>
<linearGradient id="paint6_linear_209_6916" x1="114.964" y1="63.9015" x2="126.288" y2="35.4701" gradientUnits="userSpaceOnUse">
<stop stop-color="#E8A678"/>
<stop offset="1" stop-color="#C76A4E"/>
</linearGradient>
<linearGradient id="paint7_linear_209_6916" x1="117.187" y1="128.285" x2="117.187" y2="93.2964" gradientUnits="userSpaceOnUse">
<stop stop-color="#E9A691"/>
<stop offset="0.08" stop-color="#ECA68D"/>
<stop offset="0.51" stop-color="#F9AB80"/>
<stop offset="0.57" stop-color="#FAA67C"/>
<stop offset="0.78" stop-color="#FD9A75"/>
<stop offset="1" stop-color="#FF9673"/>
</linearGradient>
<linearGradient id="paint8_linear_209_6916" x1="79.8663" y1="84.6659" x2="79.8663" y2="62.7354" gradientUnits="userSpaceOnUse">
<stop stop-color="#E9A691"/>
<stop offset="0.08" stop-color="#ECA68D"/>
<stop offset="0.51" stop-color="#F9AB80"/>
<stop offset="0.57" stop-color="#FAA67C"/>
<stop offset="0.78" stop-color="#FD9A75"/>
<stop offset="1" stop-color="#FF9673"/>
</linearGradient>
<linearGradient id="paint9_linear_209_6916" x1="151.068" y1="84.6654" x2="151.068" y2="62.7349" gradientUnits="userSpaceOnUse">
<stop stop-color="#E9A691"/>
<stop offset="0.08" stop-color="#ECA68D"/>
<stop offset="0.51" stop-color="#F9AB80"/>
<stop offset="0.57" stop-color="#FAA67C"/>
<stop offset="0.78" stop-color="#FD9A75"/>
<stop offset="1" stop-color="#FF9673"/>
</linearGradient>
<linearGradient id="paint10_linear_209_6916" x1="115.465" y1="105.135" x2="115.465" y2="32.9526" gradientUnits="userSpaceOnUse">
<stop stop-color="#E9A691"/>
<stop offset="0.08" stop-color="#ECA68D"/>
<stop offset="0.51" stop-color="#F9AB80"/>
<stop offset="0.57" stop-color="#FAA67C"/>
<stop offset="0.78" stop-color="#FD9A75"/>
<stop offset="1" stop-color="#FF9673"/>
</linearGradient>
<linearGradient id="paint11_linear_209_6916" x1="134.852" y1="51.506" x2="135.712" y2="41.7552" gradientUnits="userSpaceOnUse">
<stop offset="0.01" stop-color="#A693F4"/>
<stop offset="1" stop-color="#FFDACF"/>
</linearGradient>
<linearGradient id="paint12_linear_209_6916" x1="93.6636" y1="51.5385" x2="92.8032" y2="41.979" gradientUnits="userSpaceOnUse">
<stop offset="0.01" stop-color="#A693F4"/>
<stop offset="1" stop-color="#FFDACF"/>
</linearGradient>
<linearGradient id="paint13_linear_209_6916" x1="116.402" y1="56.7978" x2="116.402" y2="75.2048" gradientUnits="userSpaceOnUse">
<stop stop-color="#FDA771"/>
<stop offset="0.27" stop-color="#FF9078"/>
<stop offset="0.56" stop-color="#FF947E"/>
<stop offset="1" stop-color="#FF9783"/>
</linearGradient>
<linearGradient id="paint14_linear_209_6916" x1="110.272" y1="74.1504" x2="110.272" y2="66.4333" gradientUnits="userSpaceOnUse">
<stop stop-color="#FFE7D8"/>
<stop offset="0.44" stop-color="#F7DCDD"/>
<stop offset="0.99" stop-color="#F1D4E2"/>
</linearGradient>
<linearGradient id="paint15_linear_209_6916" x1="122.854" y1="56.1293" x2="122.854" y2="56.1293" gradientUnits="userSpaceOnUse">
<stop stop-color="#FFE7D8"/>
<stop offset="0.44" stop-color="#F7DCDD"/>
<stop offset="0.99" stop-color="#F1D4E2"/>
</linearGradient>
<linearGradient id="paint16_linear_209_6916" x1="97.3432" y1="67.4744" x2="96.3042" y2="58.541" gradientUnits="userSpaceOnUse">
<stop stop-color="#EBDFFF"/>
<stop offset="0.27" stop-color="#E5DCFE"/>
<stop offset="0.59" stop-color="#D7D5FC"/>
<stop offset="0.93" stop-color="#BFC8F8"/>
<stop offset="1" stop-color="#BAC6F8"/>
</linearGradient>
<linearGradient id="paint17_linear_209_6916" x1="97.4501" y1="56.8976" x2="97.4527" y2="66.0346" gradientUnits="userSpaceOnUse">
<stop stop-color="#3780A9"/>
<stop offset="1" stop-color="#153364"/>
</linearGradient>
<linearGradient id="paint18_linear_209_6916" x1="97.8993" y1="65.4356" x2="96.9811" y2="57.5407" gradientUnits="userSpaceOnUse">
<stop stop-color="#4997FE"/>
<stop offset="0.96" stop-color="#021F40"/>
<stop offset="1" stop-color="#152C39"/>
</linearGradient>
<linearGradient id="paint19_linear_209_6916" x1="94.6302" y1="62.1404" x2="100.267" y2="61.4411" gradientUnits="userSpaceOnUse">
<stop stop-color="#CAA7DB"/>
<stop offset="0.99" stop-color="#8460B8"/>
</linearGradient>
<linearGradient id="paint20_linear_209_6916" x1="134.292" y1="67.5315" x2="135.332" y2="58.5907" gradientUnits="userSpaceOnUse">
<stop stop-color="#EBDFFF"/>
<stop offset="0.27" stop-color="#E5DCFE"/>
<stop offset="0.59" stop-color="#D7D5FC"/>
<stop offset="0.93" stop-color="#BFC8F8"/>
<stop offset="1" stop-color="#BAC6F8"/>
</linearGradient>
<linearGradient id="paint21_linear_209_6916" x1="134.195" y1="56.7949" x2="134.194" y2="65.9319" gradientUnits="userSpaceOnUse">
<stop stop-color="#3780A9"/>
<stop offset="1" stop-color="#153364"/>
</linearGradient>
<linearGradient id="paint22_linear_209_6916" x1="133.732" y1="65.4928" x2="134.651" y2="57.5978" gradientUnits="userSpaceOnUse">
<stop stop-color="#4997FE"/>
<stop offset="0.96" stop-color="#021F40"/>
<stop offset="1" stop-color="#152C39"/>
</linearGradient>
<linearGradient id="paint23_linear_209_6916" x1="137.005" y1="62.1901" x2="131.369" y2="61.4908" gradientUnits="userSpaceOnUse">
<stop stop-color="#CAA7DB"/>
<stop offset="0.99" stop-color="#8460B8"/>
</linearGradient>
<clipPath id="clip0_209_6916">
<rect width="220" height="227" fill="white"/>
</clipPath>
<clipPath id="clip1_209_6916">
<rect width="19.3524" height="24.1922" fill="white" transform="translate(106.635 56.126)"/>
</clipPath>
<clipPath id="clip2_209_6916">
<rect width="55.1543" height="14.5153" fill="white" transform="translate(88.251 53.2246)"/>
</clipPath>
<clipPath id="clip3_209_6916">
<rect width="76.8254" height="20.9538" fill="white" transform="translate(76.8257 52.3848)"/>
</clipPath>
<clipPath id="clip4_209_6916">
<rect width="16.15" height="27.64" fill="white" transform="translate(186 25)"/>
</clipPath>
<clipPath id="clip5_209_6916">
<rect width="13" height="23" fill="white" transform="translate(40 9)"/>
</clipPath>
<clipPath id="clip6_209_6916">
<rect width="17" height="29" fill="white" transform="translate(23 90)"/>
</clipPath>
</defs>
</svg>
